<svg width="16" height="16" viewBox="0 0 16 16" fill="none" xmlns="http://www.w3.org/2000/svg">
<rect width="16" height="16" fill="white"/>
<path d="M12.8245 8.42342L9.2245 12.0234C9.11178 12.1361 8.95891 12.1995 8.7995 12.1995C8.64009 12.1995 8.48722 12.1361 8.3745 12.0234C8.26178 11.9107 8.19846 11.7578 8.19846 11.5984C8.19846 11.439 8.26178 11.2861 8.3745 11.1734L10.95 8.59892H3.6C3.44087 8.59892 3.28826 8.5357 3.17574 8.42318C3.06321 8.31066 3 8.15805 3 7.99892C3 7.83979 3.06321 7.68717 3.17574 7.57465C3.28826 7.46213 3.44087 7.39892 3.6 7.39892H10.95L8.3755 4.82292C8.26278 4.7102 8.19946 4.55732 8.19946 4.39792C8.19946 4.23851 8.26278 4.08563 8.3755 3.97292C8.48822 3.8602 8.64109 3.79688 8.8005 3.79688C8.95991 3.79687 9.11278 3.8602 9.2255 3.97292L12.8255 7.57292C12.8814 7.62873 12.9258 7.69505 12.9561 7.76806C12.9863 7.84108 13.0018 7.91935 13.0017 7.99837C13.0016 8.0774 12.9859 8.15563 12.9555 8.22857C12.9251 8.30152 12.8806 8.36773 12.8245 8.42342Z" fill="#191A1F"/>
</svg>
